<svg width="35" height="35" viewBox="0 0 35 35" fill="none" xmlns="http://www.w3.org/2000/svg">
<path fill-rule="evenodd" clip-rule="evenodd" d="M11.3021 10.9375C11.3021 7.51448 14.077 4.73958 17.5 4.73958C20.923 4.73958 23.6979 7.51448 23.6979 10.9375C23.6979 14.3605 20.923 17.1354 17.5 17.1354C14.077 17.1354 11.3021 14.3605 11.3021 10.9375ZM17.5 6.92708C15.2851 6.92708 13.4896 8.7226 13.4896 10.9375C13.4896 13.1524 15.2851 14.9479 17.5 14.9479C19.7149 14.9479 21.5104 13.1524 21.5104 10.9375C21.5104 8.7226 19.7149 6.92708 17.5 6.92708Z" fill="white"/>
<path fill-rule="evenodd" clip-rule="evenodd" d="M11.6667 21.5104C9.85447 21.5104 8.38541 22.9795 8.38541 24.7917V26.5246C8.38541 26.551 8.40453 26.5735 8.43057 26.5777C14.4371 27.5584 20.5629 27.5584 26.5694 26.5777C26.5954 26.5735 26.6146 26.551 26.6146 26.5246V24.7917C26.6146 22.9795 25.1455 21.5104 23.3333 21.5104H22.8362C22.7978 21.5104 22.7596 21.5165 22.7231 21.5284L21.4608 21.9406C18.8871 22.781 16.1128 22.781 13.5391 21.9406L12.2769 21.5284C12.2404 21.5165 12.2022 21.5104 12.1638 21.5104H11.6667ZM6.19791 24.7917C6.19791 21.7714 8.64635 19.3229 11.6667 19.3229H12.1638C12.4328 19.3229 12.7002 19.3655 12.9559 19.449L14.2181 19.8611C16.3506 20.5574 18.6493 20.5574 20.7818 19.8611L22.0441 19.449C22.2998 19.3655 22.5672 19.3229 22.8362 19.3229H23.3333C26.3536 19.3229 28.8021 21.7714 28.8021 24.7917V26.5246C28.8021 27.623 28.006 28.5596 26.9219 28.7366C20.6819 29.7554 14.3181 29.7554 8.07809 28.7366C6.99399 28.5596 6.19791 27.623 6.19791 26.5246V24.7917Z" fill="white"/>
</svg>
